<?xml version="1.0" standalone="no"?>
<!DOCTYPE svg PUBLIC "-//W3C//DTD SVG 20010904//EN"
 "http://www.w3.org/TR/2001/REC-SVG-20010904/DTD/svg10.dtd">
<svg version="1.0" xmlns="http://www.w3.org/2000/svg"
 width="512.000000pt" height="512.000000pt" viewBox="0 0 512.000000 512.000000"
 preserveAspectRatio="xMidYMid meet">
<metadata>
Created by potrace 1.11, written by Peter Selinger 2001-2013
</metadata>
<g transform="translate(0.000000,512.000000) scale(0.100000,-0.100000)"
fill="#000000" stroke="none">
<path d="M3900 3900 c0 -31 -66 -97 -134 -134 -214 -119 -591 -185 -1046 -186
-233 0 -374 9 -544 36 -318 49 -553 143 -616 247 l-20 32 0 -90 c0 -49 3 -181
7 -292 l6 -202 51 -17 c201 -66 432 -249 562 -446 212 -322 261 -696 135
-1030 -66 -178 -140 -301 -247 -417 -31 -34 -54 -64 -51 -67 3 -4 37 -13 74
-21 152 -32 338 -54 516 -60 l187 -6 0 -43 c0 -56 11 -84 50 -122 150 -150
598 -252 1110 -252 564 0 1056 126 1155 294 l25 43 0 589 c0 580 -1 588 -19
548 -120 -264 -1156 -399 -1860 -243 -121 27 -281 81 -340 115 -195 112 -187
255 21 360 204 103 566 174 884 174 l104 0 0 605 c0 333 -2 605 -5 605 -3 0
-5 -9 -5 -20z"/>
<path d="M1255 2936 c-176 -35 -311 -109 -428 -235 -55 -60 -128 -173 -142
-218 -6 -21 -12 -23 -87 -23 -97 0 -140 -17 -163 -67 -21 -44 -13 -92 20 -126
27 -27 63 -37 131 -37 l44 0 0 -50 0 -50 -56 0 c-72 0 -118 -22 -139 -67 -21
-44 -13 -92 20 -126 30 -29 63 -37 161 -37 l73 0 32 -67 c25 -52 56 -91 128
-163 109 -108 201 -163 336 -202 150 -42 399 -24 492 37 56 37 61 128 10 175
-39 37 -54 37 -197 5 -179 -40 -372 22 -502 163 l-43 47 280 5 c246 4 283 7
306 23 48 32 62 93 33 148 -28 56 -51 59 -394 59 l-310 0 0 50 0 50 338 0
c381 0 391 2 425 72 22 45 12 91 -29 129 l-26 24 -320 5 -319 5 29 40 c48 66
119 125 195 161 124 58 233 68 377 34 94 -23 127 -20 163 16 48 47 40 130 -16
167 -77 50 -295 78 -422 53z"/>
</g>
</svg>
